<svg xmlns="http://www.w3.org/2000/svg" xmlns:svg="http://www.w3.org/2000/svg" id="svg2" width="744.094" height="1052.362" version="1.1"><defs id="defs4"><marker id="Arrow2Mend" orient="auto" refX="0" refY="0" style="overflow:visible"><path id="path3696" d="M 8.7185878,4.0337352 L -2.2072895,0.016013256 L 8.7185884,-4.0017078 C 6.9730900,-1.6296469 6.9831476,1.6157441 8.7185878,4.0337352 z" transform="scale(0.6) rotate(180) translate(0,0)" style="font-size:12;fill-rule:evenodd;stroke-width:.625;stroke-linejoin:round"/></marker><marker id="Arrow2Lend" orient="auto" refX="0" refY="0" style="overflow:visible"><path id="path3690" d="M 8.7185878,4.0337352 L -2.2072895,0.016013256 L 8.7185884,-4.0017078 C 6.9730900,-1.6296469 6.9831476,1.6157441 8.7185878,4.0337352 z" transform="scale(1.1) rotate(180) translate(1,0)" style="font-size:12;fill-rule:evenodd;stroke-width:.625;stroke-linejoin:round"/></marker><marker id="Arrow2Mend-0" orient="auto" refX="0" refY="0" style="overflow:visible"><path id="path3696-9" d="M 8.7185878,4.0337352 -2.2072895,0.01601326 8.7185884,-4.0017078 c -1.7454984,2.3720609 -1.7354408,5.6174519 -6e-7,8.035443 z" transform="scale(-0.6,-0.6)" style="font-size:12px;fill-rule:evenodd;stroke-width:.625;stroke-linejoin:round"/></marker></defs><metadata id="metadata7"/><g id="layer1"><path style="fill:none;stroke:#000;stroke-width:1px;stroke-linecap:butt;stroke-linejoin:miter;stroke-opacity:1" id="path2816" d="m 227,602.36218 79,-1 14,56 -91,43 -2,-98 z"/><path style="fill:none;stroke:#000;stroke-width:1px;stroke-linecap:butt;stroke-linejoin:miter;stroke-opacity:1" id="path2818" d="m 246.19848,535.12334 80.64122,69.26034 -116.72691,8.47526 36.08569,-77.7356 z"/><rect style="fill:#0f0;fill-opacity:1;stroke-width:1.5;stroke-miterlimit:4;stroke-dasharray:none" id="rect2820" width="7" height="7" x="224" y="608.362"/><rect style="fill:#0f0;fill-opacity:1;stroke-width:1.5;stroke-miterlimit:4;stroke-dasharray:none" id="rect2820-1" width="7" height="7" x="303.5" y="602.362"/><path style="fill:none;stroke:#000;stroke-width:1px;stroke-linecap:butt;stroke-linejoin:miter;stroke-opacity:1" id="path2816-7" d="m 386,601.86218 79,-1 14,56 -91,43 -2,-98 z"/><path style="fill:none;stroke:#000;stroke-width:1;stroke-miterlimit:4;stroke-opacity:1;stroke-dasharray:none" id="path2866" d="m 463.5,556.61218 a 34.75,34.75 0 1 1 -69.5,0 34.75,34.75 0 1 1 69.5,0 z" transform="translate(-2,14)"/><rect style="fill:#0f0;fill-opacity:1;stroke-width:1.5;stroke-miterlimit:4;stroke-dasharray:none" id="rect2820-4" width="7" height="7" x="424.5" y="602.862"/><path style="fill:none;stroke:#000;stroke-width:1px;stroke-linecap:butt;stroke-linejoin:miter;stroke-opacity:1;marker-end:url(#Arrow2Mend)" id="path3664" d="m 264,601.36218 0,-26.5"/><path style="fill:none;stroke:#000;stroke-width:1px;stroke-linecap:butt;stroke-linejoin:miter;stroke-opacity:1;marker-end:url(#Arrow2Mend)" id="path3664-4" d="m 427.50961,601.02437 0,-26.5"/><text style="font-size:12px;font-style:normal;font-variant:normal;font-weight:400;font-stretch:normal;text-align:start;line-height:125%;writing-mode:lr-tb;text-anchor:start;fill:#000;fill-opacity:1;stroke:none;font-family:Calibri;-inkscape-font-specification:Calibri" id="text4330" x="208" y="731.862" xml:space="preserve"><tspan id="tspan4332" x="208" y="731.862">two points, one normal</tspan></text><text style="font-size:12px;font-style:normal;font-variant:normal;font-weight:400;font-stretch:normal;text-align:start;line-height:125%;writing-mode:lr-tb;text-anchor:start;fill:#000;fill-opacity:1;stroke:none;font-family:Calibri;-inkscape-font-specification:Calibri" id="text4330-8" x="378.831" y="731.862" xml:space="preserve"><tspan id="tspan4332-8" x="378.831" y="731.862">two points, one normal</tspan></text></g></svg>