<svg xmlns="http://www.w3.org/2000/svg" xmlns:svg="http://www.w3.org/2000/svg" id="svg2" width="744.094" height="1052.362" version="1.1"><defs id="defs4"><marker id="Arrow2Mend" orient="auto" refX="0" refY="0" style="overflow:visible"><path id="path3648" d="M 8.7185878,4.0337352 L -2.2072895,0.016013256 L 8.7185884,-4.0017078 C 6.9730900,-1.6296469 6.9831476,1.6157441 8.7185878,4.0337352 z" transform="scale(0.6) rotate(180) translate(0,0)" style="font-size:12;fill-rule:evenodd;stroke-width:.625;stroke-linejoin:round"/></marker></defs><metadata id="metadata7"/><g id="layer1"><rect style="fill:none;stroke:#000;stroke-width:1;stroke-miterlimit:4;stroke-opacity:1;stroke-dasharray:none;stroke-dashoffset:0" id="rect2816" width="233" height="13.5" x="210.5" y="541.862"/><path style="fill:none;stroke:#000;stroke-width:1;stroke-miterlimit:4;stroke-opacity:1;stroke-dasharray:none;stroke-dashoffset:0" id="path3592" d="m 301.5,494.11218 a 6.25,6.25 0 1 1 -12.5,0 6.25,6.25 0 1 1 12.5,0 z" transform="translate(7.5,3)"/><path style="fill:none;stroke:#000;stroke-width:1;stroke-miterlimit:4;stroke-opacity:1;stroke-dasharray:none;stroke-dashoffset:0" id="path3592-1" d="m 301.5,494.11218 a 6.25,6.25 0 1 1 -12.5,0 6.25,6.25 0 1 1 12.5,0 z" transform="translate(7.5,91.25)"/><path style="fill:none;stroke:#000;stroke-width:.93691868;stroke-linecap:butt;stroke-linejoin:miter;stroke-miterlimit:4;stroke-opacity:1;stroke-dasharray:.93691866,1.87383732;stroke-dashoffset:0;marker-end:url(#Arrow2Mend)" id="path3616" d="m 302.99984,505.33064 0,71.67556"/><text style="font-size:12px;font-style:normal;font-variant:normal;font-weight:400;font-stretch:normal;text-align:start;line-height:125%;writing-mode:lr-tb;text-anchor:start;fill:#000;fill-opacity:1;stroke:none;font-family:Calibri;-inkscape-font-specification:Calibri" id="text4066" x="319" y="499.862" xml:space="preserve"><tspan id="tspan4068" x="319" y="499.862">t=0</tspan></text><text id="text4070" x="319" y="587.862" xml:space="preserve" style="font-size:12px;font-style:normal;font-variant:normal;font-weight:400;font-stretch:normal;text-align:start;line-height:125%;writing-mode:lr;text-anchor:start;fill:#000;fill-opacity:1;stroke:none;font-family:Calibri;-inkscape-font-specification:Calibri"><tspan id="tspan4074">t=1</tspan></text><text style="font-size:12px;font-style:normal;font-variant:normal;font-weight:400;font-stretch:normal;text-align:start;line-height:125%;writing-mode:lr-tb;text-anchor:start;fill:#000;fill-opacity:1;stroke:none;font-family:Calibri;-inkscape-font-specification:Calibri" id="text4076" x="300" y="620.862" xml:space="preserve"><tspan id="tspan4078" x="300" y="620.862">tunneling</tspan></text></g></svg>